<svg width="40" height="40" viewBox="0 0 40 40" fill="none" xmlns="http://www.w3.org/2000/svg">
<path d="M6.99959 6C6.29111 5.99895 5.60512 6.24866 5.06312 6.70493C4.52112 7.16119 4.15808 7.79455 4.0383 8.49283C3.91853 9.19111 4.04975 9.90925 4.40873 10.52C4.7677 11.1309 5.33126 11.5949 5.99959 11.83V33C5.99959 33.2652 6.10495 33.5196 6.29249 33.7071C6.48002 33.8947 6.73438 34 6.99959 34H19.9996V25C19.9996 24.7348 19.8942 24.4804 19.7067 24.2929C19.5192 24.1054 19.2648 24 18.9996 24H10.9996C10.7344 24 10.48 24.1054 10.2925 24.2929C10.1049 24.4804 9.99959 24.7348 9.99959 25V32H7.99959V12H31.9996V16.81C32.1036 16.892 32.2036 16.982 32.2996 17.078C32.7456 17.536 33.3256 18.058 33.9996 18.536V11.83C34.6679 11.5949 35.2315 11.1309 35.5904 10.52C35.9494 9.90925 36.0806 9.19111 35.9609 8.49283C35.8411 7.79455 35.4781 7.16119 34.9361 6.70493C34.394 6.24866 33.7081 5.99895 32.9996 6H6.99959ZM5.99959 9C5.99959 8.73479 6.10495 8.48043 6.29249 8.2929C6.48002 8.10536 6.73438 8 6.99959 8H32.9996C33.2648 8 33.5192 8.10536 33.7067 8.2929C33.8942 8.48043 33.9996 8.73479 33.9996 9C33.9996 9.26522 33.8942 9.51957 33.7067 9.70711C33.5192 9.89465 33.2648 10 32.9996 10H6.99959C6.73438 10 6.48002 9.89465 6.29249 9.70711C6.10495 9.51957 5.99959 9.26522 5.99959 9ZM17.9996 32H11.9996V26H17.9996V32ZM29.9996 16.124V15C29.9996 14.7348 29.8942 14.4804 29.7067 14.2929C29.5192 14.1054 29.2648 14 28.9996 14H10.9996C10.7344 14 10.48 14.1054 10.2925 14.2929C10.1049 14.4804 9.99959 14.7348 9.99959 15V21C9.99959 21.2652 10.1049 21.5196 10.2925 21.7071C10.48 21.8947 10.7344 22 10.9996 22H20.1656C20.5356 20.944 21.4656 20.23 22.4456 20H11.9996V16H27.9996V16.81C28.5703 16.3635 29.2749 16.1225 29.9996 16.126V16.124ZM37.0016 21.93C34.2616 21.544 32.0296 19.662 30.8696 18.478C30.6366 18.2515 30.3245 18.1248 29.9996 18.1248C29.6747 18.1248 29.3625 18.2515 29.1296 18.478C27.9696 19.662 25.7396 21.544 22.9976 21.93C22.4496 22.006 21.9996 22.448 21.9996 23V28C21.9996 34.936 28.3636 37.454 29.7396 37.918C29.9081 37.9759 30.0911 37.9759 30.2596 37.918C31.6356 37.454 37.9996 34.938 37.9996 28V23C37.9996 22.448 37.5496 22.006 37.0016 21.93V21.93Z" fill="#1E5299"/>
</svg>
