<svg width="20" height="20" viewBox="0 0 20 20" fill="currentColor" xmlns="http://www.w3.org/2000/svg">
<path d="M8.71634 11.65L6.72259 9.65626C6.55454 9.4882 6.34462 9.40815 6.09284 9.41609C5.84045 9.42343 5.63023 9.51112 5.46217 9.67918C5.29412 9.84723 5.21009 10.0611 5.21009 10.3208C5.21009 10.5806 5.29412 10.7945 5.46217 10.9625L8.07467 13.575C8.24273 13.7431 8.45662 13.8271 8.71634 13.8271C8.97606 13.8271 9.18995 13.7431 9.35801 13.575L14.5601 8.37293C14.7281 8.20487 14.8085 7.99465 14.8012 7.74226C14.7932 7.49048 14.7052 7.28057 14.5372 7.11251C14.3691 6.94445 14.1552 6.86043 13.8955 6.86043C13.6358 6.86043 13.4219 6.94445 13.2538 7.11251L8.71634 11.65ZM9.99967 19.1667C8.73162 19.1667 7.53995 18.9259 6.42467 18.4443C5.3094 17.9634 4.33926 17.3104 3.51426 16.4854C2.68926 15.6604 2.03629 14.6903 1.55534 13.575C1.07379 12.4597 0.833008 11.2681 0.833008 10C0.833008 8.73195 1.07379 7.54029 1.55534 6.42501C2.03629 5.30973 2.68926 4.33959 3.51426 3.51459C4.33926 2.68959 5.3094 2.03632 6.42467 1.55476C7.53995 1.07382 8.73162 0.833344 9.99967 0.833344C11.2677 0.833344 12.4594 1.07382 13.5747 1.55476C14.69 2.03632 15.6601 2.68959 16.4851 3.51459C17.3101 4.33959 17.9631 5.30973 18.444 6.42501C18.9256 7.54029 19.1663 8.73195 19.1663 10C19.1663 11.2681 18.9256 12.4597 18.444 13.575C17.9631 14.6903 17.3101 15.6604 16.4851 16.4854C15.6601 17.3104 14.69 17.9634 13.5747 18.4443C12.4594 18.9259 11.2677 19.1667 9.99967 19.1667ZM9.99967 17.3333C12.0316 17.3333 13.762 16.6193 15.1908 15.1911C16.6189 13.7623 17.333 12.032 17.333 10C17.333 7.96807 16.6189 6.2377 15.1908 4.80893C13.762 3.38076 12.0316 2.66668 9.99967 2.66668C7.96773 2.66668 6.23767 3.38076 4.80951 4.80893C3.38073 6.2377 2.66634 7.96807 2.66634 10C2.66634 12.032 3.38073 13.7623 4.80951 15.1911C6.23767 16.6193 7.96773 17.3333 9.99967 17.3333Z"/>
</svg>
