<svg width="38" height="38" viewBox="0 0 38 38" fill="none" xmlns="http://www.w3.org/2000/svg">
<path d="M31.9499 9.95984L20.8706 4.78155C20.2687 4.50025 19.6125 4.35438 18.9481 4.35425C18.2837 4.35411 17.6274 4.4997 17.0254 4.78076L6.05057 9.90284C5.7373 10.049 5.47223 10.2815 5.28649 10.5731C5.10074 10.8647 5.00204 11.2032 5.00195 11.5489C5.00187 11.8946 5.10041 12.2331 5.28602 12.5248C5.47162 12.8164 5.73658 13.0491 6.04978 13.1954L17.1292 18.3737C17.731 18.6551 18.3872 18.8011 19.0515 18.8014C19.7159 18.8016 20.3722 18.6562 20.9743 18.3753L31.9492 13.2524C32.2624 13.1062 32.5275 12.8737 32.7132 12.5821C32.899 12.2906 32.9977 11.9521 32.9978 11.6064C32.9979 11.2607 32.8993 10.9221 32.7137 10.6305C32.5281 10.3388 32.2632 10.1062 31.9499 9.95984V9.95984Z" stroke="#1E5299" stroke-width="2" stroke-linecap="round" stroke-linejoin="round"/>
<path d="M10.4711 15.2617L6.05044 17.3248C5.73695 17.4709 5.47167 17.7034 5.28576 17.9951C5.09986 18.2867 5.00106 18.6254 5.00098 18.9712C5.00089 19.3171 5.09953 19.6558 5.28529 19.9475C5.47106 20.2392 5.73623 20.4719 6.04965 20.6181L17.129 25.7956C17.7308 26.0771 18.3871 26.2231 19.0514 26.2233C19.7158 26.2236 20.3721 26.0781 20.9742 25.7972L31.949 20.6751C32.2623 20.529 32.5274 20.2964 32.7131 20.0049C32.8989 19.7133 32.9976 19.3748 32.9976 19.0291C32.9977 18.6834 32.8992 18.3449 32.7136 18.0532C32.528 17.7616 32.263 17.5289 31.9498 17.3826L27.5284 15.3163" stroke="#1E5299" stroke-width="2" stroke-linecap="round" stroke-linejoin="round"/>
<path d="M10.4711 22.6843L6.05044 24.7474C5.73695 24.8935 5.47167 25.126 5.28576 25.4177C5.09986 25.7093 5.00106 26.048 5.00098 26.3938C5.00089 26.7397 5.09953 27.0784 5.28529 27.3701C5.47106 27.6619 5.73623 27.8945 6.04965 28.0407L17.129 33.2182C17.7309 33.4995 18.3871 33.6454 19.0515 33.6455C19.7159 33.6457 20.3722 33.5001 20.9742 33.219L31.949 28.097C32.2623 27.9508 32.5274 27.7183 32.7131 27.4267C32.8989 27.1351 32.9976 26.7966 32.9976 26.4509C32.9977 26.1052 32.8992 25.7667 32.7136 25.475C32.528 25.1834 32.263 24.9507 31.9498 24.8044L27.5284 22.7382" stroke="#1E5299" stroke-width="2" stroke-linecap="round" stroke-linejoin="round"/>
</svg>
