<svg width="34" height="34" viewBox="0 0 34 34" fill="none" xmlns="http://www.w3.org/2000/svg">
<g clip-path="url(#clip0_665_86)">
<path d="M17 5.66667C14.7585 5.66667 12.5673 6.33136 10.7035 7.57668C8.83978 8.822 7.38716 10.592 6.52937 12.6629C5.67157 14.7338 5.44713 17.0126 5.88443 19.211C6.32173 21.4095 7.40113 23.4289 8.98612 25.0139C10.5711 26.5989 12.5905 27.6783 14.789 28.1156C16.9874 28.5529 19.2662 28.3284 21.3371 27.4706C23.408 26.6128 25.178 25.1602 26.4233 23.2965C27.6686 21.4327 28.3333 19.2415 28.3333 17C28.3322 13.9946 27.1378 11.1125 25.0126 8.98737C22.8875 6.8622 20.0054 5.66779 17 5.66667ZM8.5 17C8.50196 16.4795 8.55175 15.9602 8.64875 15.4487L13.6 20.4V21.5333C13.6019 22.1339 13.8413 22.7094 14.266 23.134C14.6906 23.5587 15.2661 23.7981 15.8667 23.8V25.415C13.8291 25.1397 11.9602 24.1356 10.6058 22.5885C9.25149 21.0414 8.5034 19.0561 8.5 17ZM21.5333 21.5333H20.4V18.1333C20.3993 17.833 20.2796 17.5452 20.0672 17.3328C19.8548 17.1204 19.567 17.0007 19.2667 17H12.4667V14.7333H14.7333C15.0337 14.7326 15.3215 14.6129 15.5339 14.4006C15.7463 14.1882 15.8659 13.9003 15.8667 13.6V11.3333H18.1333C18.7083 11.3309 19.2608 11.11 19.679 10.7154C20.0972 10.3209 20.3499 9.78216 20.3858 9.20833C21.6105 9.73776 22.693 10.5487 23.5452 11.5753C24.3974 12.6019 24.9953 13.8151 25.2903 15.1163C25.5854 16.4175 25.5691 17.77 25.2429 19.0638C24.9168 20.3575 24.2899 21.556 23.4132 22.5618C23.2119 22.246 22.934 21.9861 22.6053 21.8063C22.2767 21.6265 21.9079 21.5326 21.5333 21.5333ZM18.4167 1.41667C18.4167 1.69686 18.3336 1.97075 18.1779 2.20372C18.0222 2.43669 17.801 2.61827 17.5421 2.7255C17.2833 2.83272 16.9984 2.86077 16.7236 2.80611C16.4488 2.75145 16.1964 2.61653 15.9983 2.4184C15.8001 2.22028 15.6652 1.96785 15.6106 1.69304C15.5559 1.41824 15.5839 1.13339 15.6912 0.874532C15.7984 0.61567 15.98 0.394417 16.2129 0.238751C16.4459 0.0830861 16.7198 0 17 0C17.3757 0 17.7361 0.149256 18.0017 0.414932C18.2674 0.680609 18.4167 1.04094 18.4167 1.41667ZM25.5 2.83333C25.5 3.11352 25.4169 3.38742 25.2612 3.62039C25.1056 3.85336 24.8843 4.03494 24.6255 4.14216C24.3666 4.24939 24.0818 4.27744 23.807 4.22278C23.5321 4.16812 23.2797 4.03319 23.0816 3.83507C22.8835 3.63694 22.7485 3.38452 22.6939 3.10971C22.6392 2.8349 22.6673 2.55006 22.7745 2.2912C22.8817 2.03234 23.0633 1.81108 23.2963 1.65542C23.5292 1.49975 23.8031 1.41667 24.0833 1.41667C24.4591 1.41667 24.8194 1.56592 25.0851 1.8316C25.3507 2.09728 25.5 2.45761 25.5 2.83333ZM31.1667 8.5C31.1667 8.78019 31.0836 9.05409 30.9279 9.28706C30.7723 9.52003 30.551 9.7016 30.2921 9.80883C30.0333 9.91605 29.7484 9.94411 29.4736 9.88945C29.1988 9.83478 28.9464 9.69986 28.7483 9.50173C28.5501 9.30361 28.4152 9.05118 28.3606 8.77638C28.3059 8.50157 28.3339 8.21673 28.4412 7.95787C28.5484 7.699 28.73 7.47775 28.9629 7.32208C29.1959 7.16642 29.4698 7.08333 29.75 7.08333C30.1257 7.08333 30.4861 7.23259 30.7517 7.49827C31.0174 7.76394 31.1667 8.12428 31.1667 8.5ZM34 17C34 17.2802 33.9169 17.5541 33.7612 17.7871C33.6056 18.02 33.3843 18.2016 33.1255 18.3088C32.8666 18.4161 32.5818 18.4441 32.307 18.3894C32.0321 18.3348 31.7797 18.1999 31.5816 18.0017C31.3835 17.8036 31.2485 17.5512 31.1939 17.2764C31.1392 17.0016 31.1673 16.7167 31.2745 16.4579C31.3817 16.199 31.5633 15.9777 31.7963 15.8221C32.0292 15.6664 32.3031 15.5833 32.5833 15.5833C32.9591 15.5833 33.3194 15.7326 33.5851 15.9983C33.8507 16.2639 34 16.6243 34 17ZM31.1667 25.5C31.1667 25.7802 31.0836 26.0541 30.9279 26.2871C30.7723 26.52 30.551 26.7016 30.2921 26.8088C30.0333 26.9161 29.7484 26.9441 29.4736 26.8894C29.1988 26.8348 28.9464 26.6999 28.7483 26.5017C28.5501 26.3036 28.4152 26.0512 28.3606 25.7764C28.3059 25.5016 28.3339 25.2167 28.4412 24.9579C28.5484 24.699 28.73 24.4777 28.9629 24.3221C29.1959 24.1664 29.4698 24.0833 29.75 24.0833C30.1257 24.0833 30.4861 24.2326 30.7517 24.4983C31.0174 24.7639 31.1667 25.1243 31.1667 25.5ZM25.5 31.1667C25.5 31.4469 25.4169 31.7208 25.2612 31.9537C25.1056 32.1867 24.8843 32.3683 24.6255 32.4755C24.3666 32.5827 24.0818 32.6108 23.807 32.5561C23.5321 32.5014 23.2797 32.3665 23.0816 32.1684C22.8835 31.9703 22.7485 31.7179 22.6939 31.443C22.6392 31.1682 22.6673 30.8834 22.7745 30.6245C22.8817 30.3657 23.0633 30.1444 23.2963 29.9887C23.5292 29.8331 23.8031 29.75 24.0833 29.75C24.4591 29.75 24.8194 29.8993 25.0851 30.1649C25.3507 30.4306 25.5 30.7909 25.5 31.1667ZM18.4167 32.5833C18.4167 32.8635 18.3336 33.1374 18.1779 33.3704C18.0222 33.6034 17.801 33.7849 17.5421 33.8922C17.2833 33.9994 16.9984 34.0274 16.7236 33.9728C16.4488 33.9181 16.1964 33.7832 15.9983 33.5851C15.8001 33.3869 15.6652 33.1345 15.6106 32.8597C15.5559 32.5849 15.5839 32.3001 15.6912 32.0412C15.7984 31.7823 15.98 31.5611 16.2129 31.4054C16.4459 31.2498 16.7198 31.1667 17 31.1667C17.3757 31.1667 17.7361 31.3159 18.0017 31.5816C18.2674 31.8473 18.4167 32.2076 18.4167 32.5833ZM11.3333 31.1667C11.3333 31.4469 11.2502 31.7208 11.0946 31.9537C10.9389 32.1867 10.7177 32.3683 10.4588 32.4755C10.1999 32.5827 9.9151 32.6108 9.64029 32.5561C9.36548 32.5014 9.11306 32.3665 8.91493 32.1684C8.71681 31.9703 8.58188 31.7179 8.52722 31.443C8.47256 31.1682 8.50061 30.8834 8.60784 30.6245C8.71506 30.3657 8.89664 30.1444 9.12961 29.9887C9.36258 29.8331 9.63648 29.75 9.91667 29.75C10.2924 29.75 10.6527 29.8993 10.9184 30.1649C11.1841 30.4306 11.3333 30.7909 11.3333 31.1667ZM5.66667 25.5C5.66667 25.7802 5.58358 26.0541 5.42792 26.2871C5.27225 26.52 5.051 26.7016 4.79214 26.8088C4.53327 26.9161 4.24843 26.9441 3.97362 26.8894C3.69882 26.8348 3.44639 26.6999 3.24827 26.5017C3.05014 26.3036 2.91522 26.0512 2.86055 25.7764C2.80589 25.5016 2.83395 25.2167 2.94117 24.9579C3.0484 24.699 3.22997 24.4777 3.46294 24.3221C3.69591 24.1664 3.96981 24.0833 4.25 24.0833C4.62572 24.0833 4.98606 24.2326 5.25174 24.4983C5.51741 24.7639 5.66667 25.1243 5.66667 25.5ZM2.83333 17C2.83333 17.2802 2.75025 17.5541 2.59458 17.7871C2.43892 18.02 2.21766 18.2016 1.9588 18.3088C1.69994 18.4161 1.4151 18.4441 1.14029 18.3894C0.865483 18.3348 0.613057 18.1999 0.414933 18.0017C0.216808 17.8036 0.0818839 17.5512 0.0272215 17.2764C-0.0274409 17.0016 0.000613815 16.7167 0.107838 16.4579C0.215062 16.199 0.39664 15.9777 0.629609 15.8221C0.862579 15.6664 1.13648 15.5833 1.41667 15.5833C1.79239 15.5833 2.15273 15.7326 2.4184 15.9983C2.68408 16.2639 2.83333 16.6243 2.83333 17ZM5.66667 8.5C5.66667 8.78019 5.58358 9.05409 5.42792 9.28706C5.27225 9.52003 5.051 9.7016 4.79214 9.80883C4.53327 9.91605 4.24843 9.94411 3.97362 9.88945C3.69882 9.83478 3.44639 9.69986 3.24827 9.50173C3.05014 9.30361 2.91522 9.05118 2.86055 8.77638C2.80589 8.50157 2.83395 8.21673 2.94117 7.95787C3.0484 7.699 3.22997 7.47775 3.46294 7.32208C3.69591 7.16642 3.96981 7.08333 4.25 7.08333C4.62572 7.08333 4.98606 7.23259 5.25174 7.49827C5.51741 7.76394 5.66667 8.12428 5.66667 8.5ZM11.3333 2.83333C11.3333 3.11352 11.2502 3.38742 11.0946 3.62039C10.9389 3.85336 10.7177 4.03494 10.4588 4.14216C10.1999 4.24939 9.9151 4.27744 9.64029 4.22278C9.36548 4.16812 9.11306 4.03319 8.91493 3.83507C8.71681 3.63694 8.58188 3.38452 8.52722 3.10971C8.47256 2.8349 8.50061 2.55006 8.60784 2.2912C8.71506 2.03234 8.89664 1.81108 9.12961 1.65542C9.36258 1.49975 9.63648 1.41667 9.91667 1.41667C10.2924 1.41667 10.6527 1.56592 10.9184 1.8316C11.1841 2.09728 11.3333 2.45761 11.3333 2.83333Z" fill="#1E5299"/>
</g>
<defs>
<clipPath id="clip0_665_86">
<rect width="34" height="34" fill="white"/>
</clipPath>
</defs>
</svg>
