<svg width="40" height="40" viewBox="0 0 40 40" xmlns="http://www.w3.org/2000/svg">
<circle cx="20" cy="20" r="19" stroke="#1E5299" stroke-width="2"/>
<path d="M17.425 25.7417C17.2264 25.5431 17.1271 25.2903 17.1271 24.9834C17.1271 24.6764 17.2264 24.4236 17.425 24.225L21.65 20L17.425 15.775C17.2264 15.5764 17.1271 15.3236 17.1271 15.0167C17.1271 14.7098 17.2264 14.457 17.425 14.2584C17.6236 14.0598 17.8764 13.9604 18.1833 13.9604C18.4903 13.9604 18.743 14.0598 18.9417 14.2584L23.925 19.2417C24.0333 19.35 24.1102 19.4674 24.1557 19.5938C24.2012 19.7202 24.2236 19.8556 24.2229 20C24.2229 20.1445 24.2002 20.2799 24.1547 20.4063C24.1092 20.5327 24.0326 20.65 23.925 20.7584L18.9417 25.7417C18.743 25.9403 18.4903 26.0396 18.1833 26.0396C17.8764 26.0396 17.6236 25.9403 17.425 25.7417Z" fill="#1E5299"/>
</svg>
