<svg width="40" height="40" viewBox="0 0 40 40" fill="none" xmlns="http://www.w3.org/2000/svg">
<circle cx="20" cy="20" r="19" transform="matrix(-1 0 0 1 40 0)" fill="white" fill-opacity="0.7" stroke="#1E5299" stroke-width="2"/>
<path d="M22.575 25.7417C22.7736 25.5431 22.8729 25.2903 22.8729 24.9834C22.8729 24.6764 22.7736 24.4236 22.575 24.225L18.35 20L22.575 15.775C22.7736 15.5764 22.8729 15.3236 22.8729 15.0167C22.8729 14.7098 22.7736 14.457 22.575 14.2584C22.3764 14.0598 22.1236 13.9604 21.8167 13.9604C21.5097 13.9604 21.257 14.0598 21.0583 14.2584L16.075 19.2417C15.9667 19.35 15.8898 19.4674 15.8443 19.5938C15.7988 19.7202 15.7764 19.8556 15.7771 20C15.7771 20.1445 15.7998 20.2799 15.8453 20.4063C15.8908 20.5327 15.9674 20.65 16.075 20.7584L21.0583 25.7417C21.257 25.9403 21.5097 26.0396 21.8167 26.0396C22.1236 26.0396 22.3764 25.9403 22.575 25.7417Z" fill="#1E5299"/>
</svg>
